<svg xmlns="http://www.w3.org/2000/svg" width="512" height="512" viewBox="0 0 1024 1024">
<g fill="#00FFFF">
<path d="M 326.44 791.08 C320.95,787.93 316.81,782.57 315.10,776.41 C314.44,774.03 314.01,761.54 314.00,744.50 L 314.00 716.50 L 304.25 714.64 C279.88,709.99 253.67,698.70 233.18,684.02 C220.92,675.24 224.53,673.87 203.73,695.19 C193.70,705.47 183.93,714.68 182.00,715.66 C176.83,718.30 165.74,718.10 160.38,715.26 C152.43,711.07 147.82,703.33 147.73,694.03 C147.65,684.77 149.93,681.39 170.47,660.24 L 189.18 640.99 L 185.79 636.24 C176.78,623.62 166.90,604.38 161.59,589.13 C158.41,579.98 153.69,561.11 151.31,548.00 L 150.49 543.50 L 124.16 543.32 L 97.82 543.15 L 92.31 540.45 C86.28,537.50 81.84,531.82 79.88,524.56 C77.25,514.80 82.75,503.82 93.00,498.36 C96.12,496.70 99.44,496.47 123.59,496.19 L 150.67 495.88 L 152.41 485.69 C157.42,456.25 167.95,428.65 182.41,407.05 C185.48,402.45 188.00,398.49 188.00,398.23 C188.00,397.98 179.82,389.39 169.83,379.14 C149.07,357.84 147.58,355.48 148.17,345.00 C148.66,336.34 152.40,329.88 159.45,325.53 C163.79,322.84 165.21,322.50 171.94,322.53 C178.03,322.55 180.25,322.99 183.16,324.79 C185.15,326.02 194.71,335.15 204.41,345.07 L 222.04 363.12 L 227.27 358.68 C240.03,347.84 263.76,334.93 281.50,329.16 C289.05,326.71 302.26,323.32 311.75,321.41 L 314.00 320.96 L 314.04 293.23 C314.08,272.69 314.44,264.53 315.43,261.75 C321.35,245.15 342.53,239.71 354.26,251.77 C361.64,259.36 361.95,261.00 361.98,292.73 L 362.00 320.96 L 364.25 321.39 C386.54,325.64 396.30,328.72 413.56,336.94 C426.06,342.89 439.53,351.24 448.72,358.72 L 454.04 363.05 L 471.21 345.46 C480.66,335.78 490.23,326.78 492.47,325.46 C501.62,320.10 514.24,321.55 521.26,328.77 C528.52,336.23 530.58,344.96 527.34,354.57 C525.93,358.75 522.80,362.42 506.77,378.68 C490.06,395.62 487.98,398.09 488.91,399.84 C489.50,400.93 491.82,404.60 494.08,408.00 C500.88,418.24 509.93,437.46 514.51,451.38 C519.58,466.79 524.28,488.05 523.39,491.57 C522.04,496.98 514.12,498.89 510.24,494.75 C508.82,493.23 507.46,489.17 506.04,482.24 C500.37,454.36 491.80,433.94 475.84,410.34 C471.77,404.32 471.00,402.43 471.00,398.52 C471.00,395.96 471.50,392.89 472.11,391.68 C472.73,390.48 482.18,380.47 493.11,369.44 C513.56,348.82 514.44,347.57 511.84,342.68 C510.14,339.50 507.90,338.07 504.50,338.01 C501.91,337.97 499.02,340.47 483.17,356.56 C473.10,366.79 463.25,376.25 461.29,377.58 C454.96,381.87 450.03,380.70 440.04,372.53 C419.32,355.58 390.78,342.50 365.53,338.39 C354.35,336.57 350.66,334.75 347.73,329.64 C346.86,328.13 346.35,318.28 346.00,296.16 L 345.50 264.82 L 343.14 262.91 C339.96,260.34 336.69,260.51 333.31,263.41 L 330.50 265.82 L 330.00 297.16 C329.64,319.42 329.14,329.13 328.26,330.66 C326.16,334.33 320.88,336.76 311.50,338.37 C284.17,343.06 258.75,354.51 236.38,372.22 C227.69,379.09 223.45,380.81 218.26,379.56 C216.49,379.13 208.50,371.89 196.00,359.38 C185.27,348.65 175.82,339.46 175.00,338.95 C170.50,336.19 164.00,340.08 164.00,345.54 C164.00,349.64 165.31,351.24 185.15,371.50 C203.93,390.67 204.27,391.12 204.74,397.39 C205.12,402.33 204.87,402.89 197.62,413.83 C181.91,437.56 172.14,463.05 167.98,491.21 C166.36,502.18 163.88,506.80 158.03,509.75 C153.74,511.92 152.58,512.00 126.74,512.00 L 99.91 512.00 L 97.45 514.45 C94.35,517.56 94.33,521.11 97.41,524.69 L 99.82 527.50 L 128.34 528.00 C155.16,528.47 157.02,528.62 159.62,530.56 C164.42,534.15 165.97,537.26 167.57,546.50 C172.77,576.66 182.74,602.55 197.80,624.97 C204.93,635.60 205.50,636.82 205.45,641.52 C205.42,644.38 204.73,647.54 203.87,648.78 C203.02,649.99 193.78,659.67 183.32,670.30 C171.40,682.42 164.05,690.68 163.61,692.42 C162.31,697.59 168.02,702.97 173.38,701.62 C174.84,701.25 183.61,693.15 194.20,682.39 C204.27,672.17 214.27,662.89 216.43,661.79 C222.99,658.43 227.29,659.58 238.70,667.78 C262.07,684.56 282.04,693.58 306.87,698.58 C320.98,701.41 325.72,703.78 328.34,709.31 C329.77,712.32 330.00,716.95 330.00,742.85 L 330.00 772.89 L 332.34 775.61 C334.01,777.56 335.63,778.33 338.00,778.33 C340.37,778.33 341.99,777.56 343.66,775.61 L 346.00 772.89 L 346.00 742.83 C346.00,713.67 346.07,712.66 348.21,708.84 C351.41,703.15 355.12,701.34 369.46,698.49 C391.70,694.06 415.64,683.48 434.00,669.95 C444.91,661.91 448.61,660.00 453.26,660.00 C459.26,660.00 464.09,663.71 481.30,681.52 C490.64,691.19 499.60,699.78 501.21,700.61 C506.95,703.58 513.00,699.98 513.00,693.60 C513.00,691.10 509.88,687.50 492.60,670.08 C465.81,643.06 465.83,643.12 478.33,624.32 C486.65,611.79 494.85,595.26 499.07,582.50 C500.88,577.00 503.27,571.49 504.36,570.25 C506.90,567.37 512.23,567.23 514.97,569.97 C518.60,573.60 518.47,576.32 514.07,589.14 C509.05,603.80 502.01,618.14 493.34,631.38 L 486.87 641.26 L 506.33 660.88 C524.20,678.90 525.91,680.94 527.39,685.93 C529.30,692.37 529.42,696.47 527.84,701.10 C523.39,714.16 510.68,720.68 497.86,716.48 C493.08,714.91 490.37,712.61 472.98,695.39 L 453.46 676.06 L 443.48 683.55 C431.92,692.23 408.50,704.30 394.00,709.06 C388.77,710.77 379.55,713.17 373.50,714.40 L 362.50 716.63 L 362.00 747.06 C361.66,767.26 361.10,778.39 360.31,780.14 C358.36,784.52 352.76,790.20 348.51,792.14 C345.96,793.29 342.13,793.96 338.00,793.97 C332.64,793.98 330.61,793.47 326.44,791.08 ZM 314.30 683.48 C298.21,680.66 276.33,672.55 262.70,664.35 C218.70,637.89 190.60,593.82 183.45,540.06 C178.34,501.70 188.59,456.72 209.79,424.50 C225.26,400.97 248.09,380.64 272.50,368.63 C288.75,360.64 302.21,356.47 319.89,353.93 C330.44,352.42 357.80,353.31 367.40,355.48 C414.48,366.10 453.65,397.63 475.51,442.50 C482.53,456.90 486.87,469.86 490.25,486.47 C492.20,496.06 492.48,500.50 492.44,520.50 C492.39,546.55 491.16,554.70 484.03,576.11 C466.22,629.61 421.89,669.96 367.50,682.16 C355.53,684.85 326.26,685.57 314.30,683.48 ZM 330.00 629.63 L 330.00 591.26 L 323.75 590.04 C315.55,588.44 304.42,583.78 298.36,579.39 L 293.50 575.88 L 268.27 601.69 C254.39,615.89 243.03,627.82 243.02,628.20 C242.98,629.59 261.03,643.62 270.06,649.23 C285.34,658.72 311.96,667.73 325.25,667.93 L 330.00 668.00 L 330.00 629.63 ZM 358.20 666.94 C380.12,662.56 396.03,656.13 412.49,644.99 C419.66,640.15 432.50,629.18 432.50,627.92 C432.50,627.53 421.14,615.70 407.26,601.63 L 382.03 576.04 L 376.48 579.93 C369.95,584.50 360.80,588.34 352.18,590.12 L 346.00 591.40 L 346.00 629.70 L 346.00 668.00 L 349.45 668.00 C351.35,668.00 355.29,667.52 358.20,666.94 ZM 451.45 605.15 C462.43,588.66 469.56,571.25 473.84,550.50 C476.03,539.87 476.99,528.66 475.75,528.25 C475.34,528.11 460.16,528.00 442.02,528.00 L 409.04 528.00 L 408.49 530.75 C406.34,541.50 401.11,554.39 396.29,560.82 C394.92,562.64 394.11,564.44 394.48,564.82 C402.78,573.11 440.87,612.81 441.82,614.16 C442.54,615.19 443.54,615.78 444.04,615.47 C444.54,615.17 447.87,610.52 451.45,605.15 ZM 256.37 590.38 C269.64,576.83 280.64,565.38 280.82,564.93 C280.99,564.48 279.30,561.08 277.07,557.38 C272.29,549.44 269.23,541.71 267.73,533.75 L 266.65 528.00 L 262.07 528.00 C259.56,527.99 244.45,527.96 228.50,527.93 L 199.50 527.86 L 199.70 534.68 C200.15,549.65 206.43,571.75 215.28,589.50 C221.19,601.35 230.02,615.00 231.77,615.00 C232.03,615.00 243.10,603.92 256.37,590.38 ZM 357.76 571.03 C382.97,561.31 397.81,532.93 391.50,506.51 C384.53,477.33 355.62,458.34 327.29,464.35 C306.41,468.77 288.70,485.84 284.08,506.00 C282.57,512.60 282.78,526.73 284.49,533.30 C289.08,550.93 303.46,566.42 320.31,571.88 C329.12,574.74 330.44,574.91 340.71,574.46 C347.89,574.15 351.63,573.40 357.76,571.03 ZM 267.79 504.44 C269.32,496.39 272.90,487.37 277.59,479.74 L 281.14 473.98 L 256.32 448.43 L 231.50 422.88 L 228.69 426.19 C220.17,436.22 209.87,457.31 204.98,474.72 C202.22,484.57 199.00,502.67 199.00,508.38 L 199.00,511.00 L 232.77 511.00 L 266.54 511.00 L 267.79 504.44 ZM 476.48 504.75 C473.86,478.42 465.13,453.40 451.31,432.63 L 444.66 422.66 L 419.34 448.28 L 394.01 473.91 L 397.05 478.42 C401.62,485.19 405.57,494.59 407.49,503.25 L 409.20 511.00 L 443.15 511.00 L 477.10 511.00 L 476.48 504.75 ZM 297.32 459.58 C302.62,455.54 314.60,450.29 322.52,448.53 L 330.00 446.86 L 330.00 408.29 L 330.00 369.71 L 323.25 370.31 C308.98,371.58 286.50,379.06 272.89,387.06 C259.73,394.79 242.67,408.30 243.21,410.57 C243.59,412.15 292.09,462.00 293.25,462.00 C293.74,462.00 295.57,460.91 297.32,459.58 ZM 408.50 436.16 L 433.50 410.82 L 426.16 403.91 C409.14,387.90 385.57,376.03 361.87,371.53 C357.42,370.69 352.03,370.00 349.89,370.00 L 346.00 370.00 L 346.00 408.40 L 346.00 446.80 L 353.35 448.43 C361.06,450.15 372.07,455.03 378.00,459.37 C379.92,460.78 381.95,461.83 382.50,461.71 C383.05,461.60 394.75,450.10 408.50,436.16 ZM 702.64 682.98 C696.32,681.06 693.49,676.44 692.55,666.50 C692.19,662.65 691.47,655.45 690.95,650.50 C688.03,622.75 684.96,593.93 684.50,590.02 C683.80,584.04 677.14,524.76 675.97,514.00 C675.45,509.33 674.13,496.73 673.02,486.00 C671.91,475.27 670.78,465.38 670.51,464.00 C670.25,462.62 669.12,452.50 668.00,441.50 C666.89,430.50 665.16,415.20 664.16,407.50 C662.57,395.18 662.27,394.04 661.67,398.00 C661.06,402.07 656.00,446.38 649.50,504.50 C641.75,573.78 640.88,580.53 639.41,582.78 C637.13,586.25 631.97,588.99 627.70,589.00 C620.26,589.00 615.46,584.43 613.02,575.00 C608.26,556.68 589.11,488.78 588.54,488.21 C588.35,488.02 585.37,496.50 581.90,507.06 C575.21,527.44 572.58,532.36 566.26,536.32 C559.45,540.57 556.63,541.00 535.27,541.00 L 514.85 541.00 L 511.92 538.08 C507.32,533.48 508.23,527.48 513.98,524.51 C516.28,523.32 520.89,523.00 535.76,523.00 C553.29,523.00 554.78,522.86 556.79,520.98 C558.25,519.62 561.59,510.81 567.11,493.73 C574.70,470.24 575.54,468.24 579.18,464.75 C583.98,460.14 589.96,459.38 596.17,462.59 C601.06,465.11 601.12,465.32 620.57,534.27 C623.17,543.49 625.41,550.91 625.55,550.77 C625.96,550.32 631.86,501.62 637.50,452.00 C638.85,440.17 640.64,424.65 641.48,417.50 C642.32,410.35 644.60,390.77 646.54,374.00 C648.48,357.23 650.53,342.05 651.10,340.27 C653.27,333.55 662.70,330.14 668.70,333.90 C670.45,335.00 672.57,336.94 673.39,338.20 C674.72,340.25 680.80,390.80 688.58,464.50 C689.39,472.20 691.15,487.73 692.48,499.00 C693.81,510.27 695.60,526.03 696.45,534.00 C699.49,562.52 701.95,584.77 703.96,601.81 C705.08,611.33 706.00,619.99 706.00,621.06 C706.00,622.13 706.39,623.00 706.86,623.00 C707.33,623.00 708.27,618.84 708.95,613.75 C712.82,584.72 717.15,555.16 717.99,552.05 C719.52,546.36 724.43,539.49 729.41,536.06 C736.90,530.91 741.49,530.02 760.80,530.01 C778.96,530.00 782.73,529.24 784.90,525.18 C785.43,524.19 786.83,518.23 788.01,511.94 C794.70,476.21 805.18,423.05 806.08,420.28 C808.39,413.23 816.41,409.55 822.69,412.67 C829.43,416.02 829.91,417.40 836.22,451.75 C839.43,469.21 842.69,486.88 843.46,491.00 C844.24,495.12 847.36,511.72 850.40,527.87 C853.43,544.03 856.07,557.41 856.27,557.60 C856.47,557.80 858.13,553.76 859.96,548.62 C864.53,535.79 868.20,531.01 876.67,526.84 L 883.45 523.50 L 911.02 523.19 C937.75,522.90 938.67,522.95 941.26,524.99 C945.90,528.64 945.82,536.09 941.09,539.72 C939.94,540.60 932.36,540.95 913.50,540.97 C878.99,541.02 881.18,539.70 873.49,565.00 C870.90,573.53 867.89,581.74 866.81,583.27 C861.08,591.32 848.42,590.67 843.18,582.06 C842.09,580.26 839.32,568.03 836.11,550.80 C833.21,535.24 828.16,508.10 824.89,490.50 C818.92,458.34 818.29,455.38 817.56,456.11 C817.16,456.51 815.76,463.51 812.10,483.50 C803.32,531.37 802.80,533.11 795.04,540.36 C787.98,546.97 783.48,548.00 761.77,548.00 C741.96,548.00 739.27,548.64 736.48,554.04 C735.62,555.70 733.85,565.25 732.54,575.28 C723.79,642.22 719.84,670.98 718.96,674.22 C717.19,680.66 709.17,684.96 702.64,682.98 ZM 707.73 671.40 C707.40,671.06 706.53,671.03 705.81,671.32 C705.01,671.64 705.25,671.87 706.42,671.92 C707.47,671.96 708.06,671.73 707.73,671.40 ZM 629.00 577.00 C629.00,576.45 628.33,576.00 627.50,576.00 C626.67,576.00 626.00,576.45 626.00,577.00 C626.00,577.55 626.67,578.00 627.50,578.00 C628.33,578.00 629.00,577.55 629.00,577.00 ZM 857.00 577.00 C857.00,576.45 856.55,576.00 856.00,576.00 C855.45,576.00 855.00,576.45 855.00,577.00 C855.00,577.55 855.45,578.00 856.00,578.00 C856.55,578.00 857.00,577.55 857.00,577.00 ZM 590.83 469.55 C591.25,465.97 589.65,464.22 587.54,465.96 C585.69,467.50 585.54,470.14 587.21,471.81 C589.01,473.61 590.46,472.71 590.83,469.55 ZM 820.50 419.00 C820.50,417.44 819.85,416.40 818.75,416.19 C816.77,415.81 815.48,418.20 816.39,420.57 C817.34,423.06 820.50,421.85 820.50,419.00 ZM 665.50 342.01 C666.17,339.90 665.46,338.00 664.01,338.00 C662.36,338.00 660.09,341.06 660.65,342.53 C661.47,344.68 664.76,344.33 665.50,342.01 ZM 329.73 552.97 C314.30,549.09 303.80,535.64 303.62,519.50 C303.46,505.20 309.84,494.66 322.41,488.45 C329.72,484.84 330.08,484.77 339.19,485.19 C346.29,485.53 349.53,486.17 352.85,487.89 C359.40,491.28 365.63,497.55 368.73,503.86 C371.17,508.82 371.50,510.64 371.50,519.00 C371.50,527.39 371.17,529.17 368.69,534.22 C365.22,541.29 356.95,548.90 350.06,551.38 C344.02,553.55 334.89,554.27 329.73,552.97 ZM 345.80 535.60 C349.54,533.65 352.62,530.15 354.45,525.77 C359.02,514.83 351.68,502.35 340.01,501.23 C333.48,500.60 330.75,501.41 326.37,505.25 C321.86,509.21 319.99,513.46 320.02,519.72 C320.05,529.70 327.52,536.95 337.80,536.98 C340.71,536.99 344.31,536.37 345.80,535.60 Z"/>
</g>
</svg>
